<?xml version="1.0" standalone="no"?>
<!DOCTYPE svg PUBLIC "-//W3C//DTD SVG 20010904//EN"
 "http://www.w3.org/TR/2001/REC-SVG-20010904/DTD/svg10.dtd">
<svg version="1.0" xmlns="http://www.w3.org/2000/svg"
 width="800" height="320" viewBox="0 0 535.866354 534.940125"
 preserveAspectRatio="xMidYMid meet">
<metadata>
Created by potrace 1.12, written by Peter Selinger 2001-2015
</metadata>
<g transform="translate(-10.133646,548.000000) scale(0.100000,-0.100000)"
fill="#FFBF00" stroke="none">
<path  style="opacity:1" fill="#a64e06" d="M2784 5455 c-9 -13 -24 -27 -35 -30 -10 -4 -22 -17 -25 -30 -3 -13
-15 -32 -26 -42 -11 -9 -26 -33 -34 -51 -7 -19 -25 -43 -39 -54 -14 -11 -25
-25 -25 -32 0 -7 -13 -30 -30 -51 -16 -21 -30 -44 -30 -51 0 -7 -13 -27 -30
-44 -16 -17 -30 -37 -30 -45 0 -7 -10 -22 -23 -32 -12 -10 -30 -36 -40 -58
-17 -37 -75 -90 -134 -123 -12 -7 -34 -24 -47 -37 -14 -14 -30 -25 -37 -25 -6
0 -27 -13 -46 -30 -20 -18 -45 -30 -62 -30 -16 0 -37 -10 -51 -25 -14 -15 -43
-28 -75 -35 -29 -6 -67 -22 -86 -35 -18 -14 -40 -25 -50 -25 -9 0 -34 -12 -55
-26 -21 -15 -51 -31 -66 -36 -15 -5 -33 -20 -42 -32 -8 -13 -29 -26 -46 -30
-18 -3 -44 -17 -59 -32 -14 -14 -74 -72 -133 -130 -60 -57 -108 -107 -108
-111 0 -4 -20 -26 -45 -49 l-45 -42 -557 -1 c-355 -1 -561 -5 -568 -12 -12
-12 6 -43 26 -45 8 0 237 -2 510 -2 408 -2 499 -4 514 -16 18 -13 19 -16 4
-33 -9 -10 -22 -35 -28 -55 -7 -20 -18 -42 -26 -48 -18 -15 -95 -155 -95 -173
0 -7 -13 -34 -29 -60 -17 -25 -33 -63 -37 -84 -4 -21 -17 -51 -30 -66 -13 -15
-26 -44 -30 -65 -3 -20 -17 -48 -30 -62 -116 -122 -76 -112 -429 -112 -235 0
-306 -2 -314 -12 -13 -16 -11 -760 2 -773 5 -4 115 -9 245 -11 248 -2 322 -13
367 -52 11 -10 34 -25 52 -34 17 -9 34 -24 38 -35 3 -11 16 -26 29 -35 14 -8
30 -32 36 -53 7 -21 23 -56 35 -78 13 -22 26 -57 29 -77 4 -21 17 -50 30 -65
13 -15 27 -44 31 -63 4 -19 15 -44 25 -55 10 -11 25 -37 33 -57 9 -21 25 -47
36 -60 12 -12 21 -27 21 -33 0 -6 9 -27 19 -48 12 -24 15 -39 8 -44 -5 -3
-217 -5 -471 -4 -254 1 -484 -1 -513 -5 -57 -7 -73 -26 -53 -64 11 -20 17 -20
565 -19 l555 1 33 -26 c17 -15 37 -31 42 -37 61 -67 164 -166 185 -179 70 -40
95 -57 126 -87 18 -18 39 -33 47 -33 7 0 24 -11 36 -24 13 -13 35 -27 49 -31
15 -3 39 -20 54 -36 16 -17 37 -29 52 -29 15 0 38 -13 56 -30 17 -17 38 -30
48 -30 9 0 37 -14 61 -30 24 -17 52 -30 61 -30 10 0 29 -9 43 -20 14 -11 45
-29 68 -40 95 -44 171 -107 241 -199 26 -35 48 -69 48 -76 0 -6 14 -21 30 -33
17 -13 30 -28 30 -35 0 -7 14 -26 30 -42 17 -16 30 -39 30 -52 0 -14 13 -36
29 -51 16 -15 33 -39 36 -54 4 -14 15 -34 26 -43 10 -10 23 -34 30 -54 6 -20
25 -49 40 -65 16 -16 32 -39 35 -52 7 -27 22 -31 31 -9 3 9 18 22 33 30 16 8
31 26 35 42 3 15 20 42 36 60 16 19 29 40 29 48 0 8 11 22 25 31 14 9 29 33
35 55 6 21 19 44 29 51 10 7 26 28 35 46 9 18 24 36 31 39 8 3 20 23 26 46 6
22 23 53 37 68 136 139 188 189 200 189 5 0 26 14 47 30 21 17 46 30 55 30 9
0 34 14 55 30 21 17 50 30 65 30 15 0 45 12 66 26 21 15 51 31 66 36 15 5 33
20 42 32 8 13 29 26 46 30 18 3 44 18 60 33 15 16 46 42 69 58 23 17 60 45 82
63 23 17 46 32 53 32 6 0 24 12 38 27 15 16 43 42 63 58 59 51 125 115 125
123 0 4 20 24 44 45 l45 37 521 1 521 0 10 23 c8 17 8 29 0 43 -10 20 -21 20
-477 19 -256 0 -470 2 -476 5 -18 12 1 86 27 103 13 8 26 29 30 46 4 17 18 43
31 57 13 14 28 43 34 63 5 20 19 45 30 55 10 9 25 34 31 54 7 20 20 47 30 60
11 13 24 41 29 62 6 21 22 51 35 65 14 15 25 31 25 35 0 5 13 23 29 41 15 18
31 43 35 55 11 34 61 70 113 81 26 6 142 12 256 13 l209 3 9 23 c5 14 9 188 9
387 0 290 -3 366 -13 375 -9 7 -103 10 -293 10 l-280 -1 -40 24 c-50 32 -90
91 -99 146 -4 28 -16 52 -31 65 -13 11 -24 31 -24 43 0 30 -17 75 -39 99 -10
11 -23 39 -29 61 -7 23 -19 47 -27 54 -7 6 -19 28 -26 48 -7 20 -22 50 -35 65
-13 15 -28 44 -33 63 -6 20 -18 45 -28 56 -17 19 -17 20 2 34 15 12 101 14
484 16 256 0 471 2 478 2 20 2 36 24 30 40 -6 14 -64 16 -534 16 l-528 0 -43
43 c-43 42 -125 124 -172 172 -14 14 -31 25 -36 25 -6 0 -19 9 -29 20 -11 12
-36 31 -57 42 -21 12 -38 25 -38 30 0 4 -15 15 -32 24 -18 9 -45 30 -59 45
-16 17 -37 29 -51 29 -15 0 -36 12 -51 30 -15 17 -35 30 -45 30 -9 0 -37 14
-61 30 -24 17 -52 30 -62 30 -9 0 -31 12 -49 26 -17 14 -49 30 -72 36 -22 5
-54 20 -70 33 -16 14 -35 25 -42 25 -7 0 -24 12 -39 28 -14 15 -48 45 -76 66
-28 21 -53 47 -56 57 -3 9 -12 20 -20 23 -8 3 -22 20 -31 38 -9 18 -25 39 -35
46 -10 7 -28 32 -39 55 -39 78 -60 112 -79 127 -11 8 -27 34 -36 58 -10 23
-21 42 -27 42 -5 0 -15 14 -22 31 -15 37 -132 159 -151 159 -8 0 -22 -11 -31
-25z m70 -766 c19 -11 38 -29 41 -40 4 -10 10 -19 15 -19 8 0 50 -36 93 -80 7
-6 32 -30 57 -53 24 -23 74 -71 109 -107 l64 -65 66 -3 c53 -3 79 1 136 23 89
34 204 45 224 21 11 -13 11 -20 -3 -41 -9 -14 -21 -62 -27 -107 -7 -46 -19
-103 -29 -128 -31 -78 -4 -130 67 -130 18 0 67 11 109 25 75 25 227 37 253 20
17 -10 13 -47 -8 -80 -10 -17 -21 -58 -25 -90 -4 -33 -14 -81 -23 -107 -15
-42 -15 -51 -2 -74 7 -15 24 -33 36 -41 20 -13 28 -13 70 1 26 8 101 22 165
31 158 21 180 9 143 -79 -19 -45 -39 -320 -25 -345 7 -15 190 -206 345 -361
14 -14 25 -35 25 -47 0 -14 -58 -79 -175 -195 -96 -95 -182 -179 -191 -187
-14 -12 -16 -28 -10 -116 10 -152 23 -225 42 -246 41 -45 -14 -94 -80 -71 -17
7 -74 16 -127 22 -52 5 -109 16 -126 25 -39 19 -78 7 -95 -30 -9 -21 -8 -35 4
-73 9 -26 19 -78 22 -116 3 -42 13 -82 26 -103 24 -41 26 -71 5 -80 -14 -5
-229 10 -332 23 -36 5 -46 2 -67 -19 -22 -22 -24 -29 -16 -59 5 -18 14 -71 19
-117 7 -52 19 -96 32 -117 11 -18 19 -44 17 -56 -3 -22 -6 -23 -88 -20 -47 2
-129 14 -182 28 -108 27 -133 29 -165 11 -21 -11 -115 -99 -334 -309 -50 -49
-95 -88 -100 -88 -11 0 -143 124 -264 247 -103 105 -190 173 -220 173 -12 0
-55 -11 -95 -25 -142 -48 -260 -48 -252 1 2 10 8 51 13 89 6 39 17 100 25 136
9 36 14 81 12 100 -3 30 -7 35 -42 44 -31 7 -50 5 -100 -13 -70 -24 -247 -35
-266 -16 -9 9 -9 22 -1 50 6 22 11 66 11 98 0 33 7 86 16 117 9 32 14 70 10
84 -6 23 -11 25 -64 25 -31 0 -113 -7 -181 -15 -157 -19 -156 -19 -147 90 3
44 15 105 26 135 31 88 27 138 -17 195 -21 27 -56 65 -78 84 -22 20 -51 48
-65 62 -14 14 -71 67 -127 118 -66 59 -103 100 -103 112 0 13 66 86 180 200
99 98 180 183 180 187 0 4 12 30 25 57 29 58 31 94 9 137 -9 18 -23 77 -30
132 -19 133 -19 133 113 117 54 -6 124 -18 155 -25 65 -15 88 -8 122 37 19 26
20 29 4 60 -10 17 -22 76 -28 129 -5 53 -14 108 -20 122 -8 22 -6 28 15 42 19
12 31 13 62 5 21 -6 49 -11 62 -11 14 0 43 -9 65 -19 23 -11 67 -22 99 -26 57
-6 59 -6 93 30 40 43 44 77 14 135 -12 23 -20 59 -20 87 0 27 -6 72 -13 100
-10 36 -11 55 -3 63 15 15 83 12 146 -5 51 -14 111 -26 216 -41 42 -7 45 -5
90 48 7 7 40 38 75 68 35 30 89 81 121 113 72 72 169 157 179 157 4 0 24 -9
43 -21z"/>
<path style="opacity:1" fill="#fd0000" d="M2760 4232 c-79 -59 -275 -254 -296 -294 -8 -15 -23 -29 -34 -33 -12
-4 -23 -21 -30 -44 -5 -21 -21 -49 -33 -63 -19 -20 -25 -42 -31 -99 -3 -40
-13 -100 -22 -132 -13 -52 -13 -63 0 -100 8 -23 20 -80 26 -127 8 -54 19 -95
32 -113 11 -16 25 -47 30 -69 5 -23 18 -54 29 -69 11 -15 26 -46 34 -69 8 -23
24 -53 35 -67 11 -14 23 -43 26 -64 4 -21 17 -53 30 -71 13 -17 24 -38 24 -44
0 -7 10 -20 22 -28 31 -22 322 -23 374 -1 36 15 64 62 64 108 0 13 11 36 25
51 13 14 27 43 31 64 3 20 17 49 31 63 13 14 27 43 30 65 3 21 18 62 34 89 15
28 30 70 34 95 4 25 16 60 27 78 18 29 21 52 22 160 1 112 -2 132 -21 172 -12
25 -26 65 -32 89 -5 24 -20 55 -33 70 -13 14 -37 46 -54 70 -30 46 -147 174
-218 240 -59 53 -86 83 -86 92 0 17 -35 7 -70 -19z m105 -164 c30 -29 59 -57
64 -63 6 -5 19 -19 31 -30 47 -46 59 -59 85 -89 43 -50 76 -107 96 -163 9 -28
24 -62 33 -75 24 -37 16 -236 -12 -275 -10 -15 -22 -50 -25 -76 -4 -31 -16
-60 -32 -79 -14 -16 -25 -38 -25 -48 0 -10 -13 -43 -29 -73 -16 -30 -32 -69
-36 -86 -4 -17 -18 -45 -32 -61 -14 -18 -27 -48 -30 -73 -3 -23 -10 -48 -16
-54 -10 -14 -240 -19 -272 -7 -21 9 -40 48 -54 113 -6 29 -20 66 -32 82 -11
15 -25 43 -31 61 -6 18 -22 49 -34 68 -13 19 -26 49 -30 65 -4 17 -18 51 -31
77 -52 100 -51 392 1 467 14 20 26 42 26 49 0 6 11 24 25 39 13 16 46 55 72
88 26 33 54 64 63 69 8 5 42 36 74 68 32 32 67 58 78 58 10 0 43 -24 73 -52z"/>
<path style="opacity:1" fill="#fd0000" d="M2690 3853 c-13 -3 -42 -23 -64 -46 -74 -76 -78 -218 -7 -276 17 -14
31 -29 31 -33 0 -4 -16 -14 -35 -22 -19 -8 -35 -21 -35 -28 0 -7 -9 -30 -20
-51 -30 -55 -26 -116 11 -182 17 -30 35 -55 41 -55 5 0 22 -14 38 -32 29 -32
32 -32 127 -36 120 -4 147 8 216 97 47 62 47 63 47 139 l0 76 -56 52 c-50 47
-54 53 -37 62 24 14 73 112 73 148 -1 41 -48 122 -93 158 -35 28 -44 30 -125
32 -48 1 -98 0 -112 -3z m153 -148 c20 -19 37 -43 37 -55 0 -31 -78 -102 -105
-94 -43 12 -73 71 -61 119 6 24 58 65 81 65 6 0 27 -16 48 -35z m-23 -264 c0
-5 16 -18 35 -30 34 -20 35 -22 35 -84 0 -69 -5 -77 -57 -95 -49 -16 -98 1
-128 46 -14 20 -25 42 -25 49 0 7 17 38 37 68 33 48 41 55 70 55 18 0 33 -4
33 -9z"/>
<path style="opacity:1" fill="#fd0000" d="M1703 3541 c-29 -3 -65 -16 -82 -29 -17 -12 -35 -22 -40 -22 -24 0
-141 -115 -160 -159 -12 -25 -29 -59 -39 -76 -12 -22 -17 -51 -16 -108 2 -65
6 -84 27 -115 13 -20 28 -50 32 -67 7 -31 88 -115 110 -115 7 0 20 -11 28 -24
18 -27 86 -46 166 -46 56 0 65 8 81 72 8 31 19 49 31 53 10 4 28 19 39 36 20
28 25 29 98 29 76 0 78 -1 111 -35 18 -19 39 -35 46 -35 9 0 16 -17 20 -47 10
-73 14 -81 48 -105 26 -19 44 -23 102 -22 39 1 81 7 94 13 21 12 23 18 19 80
-2 47 -10 75 -24 96 -12 17 -25 50 -29 75 -4 25 -17 65 -30 90 -13 25 -28 60
-34 78 -14 46 -69 129 -98 147 -12 9 -23 21 -23 27 0 19 -136 145 -170 156
-17 6 -44 21 -61 33 -24 17 -48 22 -112 24 -45 2 -105 0 -134 -4z m204 -103
c10 -8 38 -25 63 -35 25 -11 71 -46 103 -77 32 -31 62 -56 67 -56 5 0 13 -15
20 -34 6 -18 20 -42 30 -51 11 -10 25 -36 32 -57 6 -22 20 -45 30 -52 12 -8
22 -34 28 -67 11 -70 18 -87 42 -100 15 -8 18 -19 16 -52 l-3 -42 -45 0 -44 0
-14 47 c-7 27 -22 52 -33 58 -10 6 -19 19 -19 29 0 21 -15 35 -48 46 -12 3
-34 17 -47 31 -24 24 -56 30 -135 26 -58 -4 -78 -11 -85 -31 -3 -11 -19 -24
-36 -30 -16 -5 -32 -18 -36 -28 -4 -10 -18 -30 -32 -44 -14 -15 -32 -34 -39
-43 -14 -18 -63 -13 -97 10 -89 60 -101 71 -115 115 -8 24 -26 58 -39 74 -20
26 -22 38 -18 85 5 63 60 180 83 180 8 0 20 13 25 29 7 21 19 32 39 36 16 3
34 13 41 22 23 27 52 33 151 30 71 -2 101 -7 115 -19z"/>
<path style="opacity:1" fill="#fd0000" d="M3683 3541 c-33 -4 -60 -14 -76 -29 -13 -12 -31 -22 -40 -22 -32 0
-222 -187 -244 -240 -9 -19 -26 -48 -39 -63 -15 -18 -24 -41 -24 -64 0 -26 -8
-42 -29 -62 -22 -20 -30 -39 -35 -83 -4 -31 -17 -81 -28 -110 -49 -128 -42
-138 103 -138 121 0 129 4 129 74 0 29 11 48 53 98 l53 63 82 3 81 3 16 -31
c8 -16 22 -30 29 -30 8 0 31 -29 51 -65 39 -71 61 -84 117 -67 18 6 50 13 71
17 24 4 43 15 53 30 9 14 21 25 26 25 18 0 108 100 108 120 0 11 9 24 20 30
30 16 43 83 36 185 -5 68 -11 96 -26 115 -11 14 -26 39 -34 56 -17 39 -99 116
-135 128 -14 5 -36 18 -49 29 -34 31 -147 43 -269 28z m224 -109 c16 -11 41
-24 56 -27 14 -4 29 -15 32 -24 3 -10 19 -27 35 -39 17 -13 30 -28 30 -34 0
-7 9 -22 21 -34 17 -18 22 -40 26 -108 5 -81 4 -88 -20 -123 -15 -21 -31 -53
-38 -70 -6 -18 -19 -35 -29 -38 -10 -3 -32 -19 -49 -35 -17 -17 -42 -30 -55
-30 -13 0 -31 -3 -39 -6 -15 -5 -27 5 -77 67 -14 17 -33 38 -43 48 -10 9 -30
28 -45 44 -25 26 -31 27 -119 27 -87 0 -94 -2 -125 -28 -18 -16 -41 -31 -50
-35 -10 -3 -25 -21 -33 -39 -65 -135 -85 -153 -148 -129 -32 12 -35 36 -7 51
29 16 50 63 50 113 0 33 6 51 25 71 13 14 28 41 33 59 5 18 23 47 41 64 17 17
31 39 31 48 0 10 14 33 30 52 17 18 30 38 30 43 0 4 15 13 34 20 18 6 43 21
56 35 12 13 35 27 51 30 16 4 35 15 42 25 25 36 205 37 254 2z"/>
<path style="opacity:1" fill="#fd0000" d="M2779 2665 c-4 -3 -94 -6 -200 -7 -222 0 -252 -7 -316 -70 l-43 -42
0 -75 0 -75 51 -48 50 -49 468 3 468 3 38 40 c55 58 70 138 39 215 -14 34 -26
45 -81 71 -48 23 -73 29 -97 25 -17 -4 -38 -6 -46 -5 -8 1 -67 3 -130 4 -63 2
-133 6 -155 10 -22 4 -43 4 -46 0z m432 -133 c38 -42 37 -70 -4 -114 l-34 -37
-397 0 -398 0 -34 37 c-33 36 -43 73 -26 98 4 6 25 21 47 32 39 20 53 21 428
19 l389 -2 29 -33z"/>
<path style="opacity:1" fill="#fd0000" d="M2171 2185 c-14 -18 -18 -35 -15 -58 5 -30 3 -33 -38 -49 -58 -24
-59 -23 -103 18 -27 25 -45 34 -64 32 -24 -3 -26 -7 -27 -48 0 -25 -4 -59 -8
-76 -8 -34 6 -78 33 -109 10 -11 21 -32 25 -47 3 -15 15 -30 26 -33 11 -4 31
-18 44 -32 22 -24 31 -26 122 -28 103 -2 134 5 134 31 0 8 11 19 25 24 13 5
31 22 39 38 8 16 21 34 29 41 17 14 31 92 22 121 -15 46 -57 8 -70 -64 -4 -27
-12 -40 -27 -44 -11 -3 -26 -19 -33 -35 -18 -43 -76 -59 -157 -45 -53 9 -61
14 -70 40 -6 16 -23 35 -39 44 -23 11 -29 21 -29 47 0 56 10 62 80 49 82 -15
109 -4 110 44 0 11 9 29 21 40 45 40 63 106 33 118 -28 11 -42 6 -63 -19z"/>
<path style="opacity:1" fill="#fd0000" d="M2346 2194 c-22 -21 -20 -31 9 -60 33 -33 59 -28 63 13 2 23 -3 35
-20 47 -28 20 -33 20 -52 0z"/>
<path style="opacity:1" fill="#fd0000" d="M3317 2203 c-18 -17 -5 -58 28 -89 25 -23 35 -41 35 -62 0 -42 16
-51 105 -54 l80 -3 3 -42 c3 -37 0 -43 -25 -55 -15 -7 -33 -24 -40 -38 -14
-28 -38 -38 -104 -39 -62 -1 -104 15 -118 45 -7 15 -22 27 -41 30 -29 6 -30 9
-30 59 0 38 -6 59 -20 76 -20 24 -20 24 -35 5 -8 -11 -15 -39 -15 -63 0 -34 6
-50 30 -75 17 -17 30 -39 30 -49 0 -10 10 -23 23 -30 12 -6 32 -23 44 -37 21
-25 27 -26 120 -27 103 -2 133 6 133 31 0 8 13 20 29 25 21 7 32 19 36 39 3
16 18 36 31 45 23 15 25 22 24 83 -1 37 2 79 6 95 14 60 -49 78 -96 27 -16
-17 -38 -30 -52 -30 -30 0 -103 27 -102 37 1 4 5 17 8 29 11 38 -61 94 -87 67z"/>
<path style="opacity:1" fill="#fd0000" d="M2584 2175 c-8 -13 -14 -32 -12 -42 3 -17 16 -18 184 -14 138 3 183
0 189 -9 4 -7 8 -36 9 -65 1 -40 7 -58 29 -84 23 -28 27 -41 27 -96 0 -60 -2
-66 -30 -87 -16 -12 -32 -29 -35 -38 -3 -9 -20 -21 -39 -28 -18 -7 -46 -24
-60 -37 -36 -33 -65 -31 -111 5 -21 17 -43 30 -49 30 -17 0 -73 61 -81 88 -4
13 -18 27 -31 32 -27 11 -34 54 -10 67 21 11 46 63 46 94 0 15 -9 46 -19 70
-17 37 -21 40 -26 24 -4 -11 -13 -36 -20 -55 -8 -19 -17 -50 -20 -67 -4 -18
-11 -33 -16 -33 -13 0 -39 -55 -39 -83 0 -13 9 -32 21 -43 12 -10 28 -32 37
-49 21 -43 87 -104 130 -122 20 -8 50 -26 65 -39 40 -34 109 -33 140 0 13 13
40 27 60 31 23 5 42 16 49 28 10 19 70 80 112 115 11 9 16 30 16 72 0 74 -13
108 -45 120 -24 9 -25 12 -25 113 0 67 -4 107 -12 115 -9 9 -70 12 -215 12
l-203 0 -16 -25z"/>
<path style="opacity:1" fill="#fd0000" d="M3158 2189 c-22 -12 -24 -77 -4 -105 16 -21 15 -22 44 27 30 49 29
89 0 89 -13 0 -31 -5 -40 -11z"/>
</g>
</svg>
